# xmcd
#
# Track frame offsets:
#	150
#	16020
#	32640
#	50539
#	68180
#	80032
#	93285
#	113590
#	131397
#	147440
#	162377
#	179087
#	202177
#	225227
#
# Disc length: 3452 seconds
#
# Revision: 3
# Processed by: cddbd v1.5.2PL0 Copyright (c) Steve Scherf et al.
# Submitted via: dBpowerAMP V4.0
#
DISCID=ba0d7a0e
DTITLE=Editus - Siempre...
DYEAR=1995
DGENRE=Guitarra and Violin
TTITLE0=Hijo De La Luna
TTITLE1=La Bikina
TTITLE2=Blanca Palidez
TTITLE3=Violinista En El Tejado (Tradición)
TTITLE4=Classical  Gas
TTITLE5=El Día Que Me Quieras
TTITLE6=Morning
TTITLE7=Alfonsina y El Mar
TTITLE8=Dust In The Wind
TTITLE9=Sonata En La M De Paganini (1er mov)
TTITLE10=Pampa
TTITLE11=Adios Nonino
TTITLE12=Aranjuez
TTITLE13=Malagüeña
EXTD=
EXTT0=
EXTT1=
EXTT2=
EXTT3=
EXTT4=
EXTT5=
EXTT6=
EXTT7=
EXTT8=
EXTT9=
EXTT10=
EXTT11=
EXTT12=
EXTT13=
PLAYORDER=
